<svg width="42" height="25" viewBox="0 0 42 25" fill="none" xmlns="http://www.w3.org/2000/svg">
<rect y="0.5" width="42" height="24" rx="6" fill="#ECECEC"/>
<path d="M16.6663 9.83398H11.333V15.1673H16.6663V9.83398Z" stroke="#898E95" stroke-linecap="round" stroke-linejoin="round"/>
<path d="M9.33301 19.166C10.433 19.166 11.333 18.266 11.333 17.166V15.166H9.33301C8.23301 15.166 7.33301 16.066 7.33301 17.166C7.33301 18.266 8.23301 19.166 9.33301 19.166Z" stroke="#898E95" stroke-linecap="round" stroke-linejoin="round"/>
<path d="M9.33301 9.83398H11.333V7.83398C11.333 6.73398 10.433 5.83398 9.33301 5.83398C8.23301 5.83398 7.33301 6.73398 7.33301 7.83398C7.33301 8.93398 8.23301 9.83398 9.33301 9.83398Z" stroke="#898E95" stroke-linecap="round" stroke-linejoin="round"/>
<path d="M16.667 9.83398H18.667C19.767 9.83398 20.667 8.93398 20.667 7.83398C20.667 6.73398 19.767 5.83398 18.667 5.83398C17.567 5.83398 16.667 6.73398 16.667 7.83398V9.83398Z" stroke="#898E95" stroke-linecap="round" stroke-linejoin="round"/>
<path d="M18.667 19.166C19.767 19.166 20.667 18.266 20.667 17.166C20.667 16.066 19.767 15.166 18.667 15.166H16.667V17.166C16.667 18.266 17.567 19.166 18.667 19.166Z" stroke="#898E95" stroke-linecap="round" stroke-linejoin="round"/>
<path d="M34.594 7.742V8.778H30.352V12.068H33.796V13.104H30.352V17.5H29.078V7.742H34.594Z" fill="#898E95"/>
</svg>
