<svg width="84" height="29" viewBox="0 0 84 29" fill="none" xmlns="http://www.w3.org/2000/svg">
<path d="M6.78271 9.32617C10.2787 9.32637 13.1126 12.1603 13.1128 15.6562C13.1127 19.1523 10.2787 21.9871 6.78271 21.9873C5.82508 21.9873 4.91767 21.7722 4.104 21.3916V24.8477L0.452637 28.5V15.6562C0.452784 12.1602 3.2866 9.32617 6.78271 9.32617ZM6.78271 12.9785C5.30364 12.9785 4.10415 14.1772 4.104 15.6562C4.104 17.1354 5.30355 18.335 6.78271 18.335C8.26187 18.335 9.46143 17.1354 9.46143 15.6562C9.46128 14.1772 8.26178 12.9785 6.78271 12.9785Z" fill="#123042"/>
<path d="M13.053 11.3457C11.6809 9.35394 9.38498 8.04785 6.78345 8.04785C6.30974 8.04785 5.84647 8.09294 5.39673 8.17578L5.38306 8.16992L13.053 0.5V11.3457Z" fill="#FF5F1F"/>
<path d="M16.4339 19V10.1374H20.4853C21.2956 10.1374 21.992 10.2682 22.5744 10.5299C23.1652 10.7915 23.621 11.1714 23.9418 11.6694C24.2625 12.1589 24.4229 12.7413 24.4229 13.4166C24.4229 14.0834 24.2625 14.6615 23.9418 15.1511C23.621 15.6406 23.1652 16.0205 22.5744 16.2906C21.992 16.5522 21.2956 16.6831 20.4853 16.6831H17.8266L18.9407 15.5942V19H16.4339ZM18.9407 15.8601L17.8266 14.708H20.3334C20.8567 14.708 21.245 14.594 21.4982 14.3661C21.7599 14.1382 21.8907 13.8217 21.8907 13.4166C21.8907 13.003 21.7599 12.6822 21.4982 12.4543C21.245 12.2264 20.8567 12.1125 20.3334 12.1125H17.8266L18.9407 10.9603V15.8601ZM26.4048 19V10.1374H30.4563C31.2666 10.1374 31.9629 10.2682 32.5453 10.5299C33.1362 10.7915 33.592 11.1714 33.9127 11.6694C34.2334 12.1589 34.3938 12.7413 34.3938 13.4166C34.3938 14.0834 34.2334 14.6615 33.9127 15.1511C33.592 15.6322 33.1362 16.0036 32.5453 16.2653C31.9629 16.5185 31.2666 16.6451 30.4563 16.6451H27.7975L28.9116 15.5942V19H26.4048ZM31.887 19L29.684 15.7715H32.3554L34.5711 19H31.887ZM28.9116 15.8601L27.7975 14.708H30.3043C30.8277 14.708 31.2159 14.594 31.4691 14.3661C31.7308 14.1382 31.8616 13.8217 31.8616 13.4166C31.8616 13.003 31.7308 12.6822 31.4691 12.4543C31.2159 12.2264 30.8277 12.1125 30.3043 12.1125H27.7975L28.9116 10.9603V15.8601ZM35.4729 19L39.3852 10.1374H41.854L45.7789 19H43.1708L40.1068 11.3655H41.0944L38.0304 19H35.4729ZM37.6126 17.2781L38.2583 15.4296H42.5884L43.2341 17.2781H37.6126ZM47.2492 19V10.1374H49.7561V19H47.2492ZM52.2992 19V10.1374H56.49C57.4691 10.1374 58.33 10.3189 59.0728 10.6818C59.8156 11.0448 60.3938 11.5554 60.8073 12.2138C61.2294 12.8721 61.4404 13.6571 61.4404 14.5687C61.4404 15.4718 61.2294 16.2568 60.8073 16.9236C60.3938 17.582 59.8156 18.0926 59.0728 18.4556C58.33 18.8185 57.4691 19 56.49 19H52.2992ZM54.8061 16.9996H56.3887C56.8951 16.9996 57.334 16.9067 57.7054 16.721C58.0853 16.5269 58.3807 16.2484 58.5917 15.8854C58.8027 15.514 58.9082 15.0751 58.9082 14.5687C58.9082 14.0538 58.8027 13.6149 58.5917 13.252C58.3807 12.889 58.0853 12.6147 57.7054 12.429C57.334 12.2349 56.8951 12.1378 56.3887 12.1378H54.8061V16.9996ZM67.6084 19.1773C66.3001 19.1773 65.2788 18.8185 64.5445 18.1011C63.8102 17.3836 63.443 16.3665 63.443 15.0498V10.1374H65.9498V14.9738C65.9498 15.7335 66.0975 16.2779 66.393 16.6071C66.6968 16.9363 67.1104 17.1009 67.6337 17.1009C68.1571 17.1009 68.5664 16.9363 68.8618 16.6071C69.1573 16.2779 69.305 15.7335 69.305 14.9738V10.1374H71.7738V15.0498C71.7738 16.3665 71.4067 17.3836 70.6723 18.1011C69.938 18.8185 68.9167 19.1773 67.6084 19.1773ZM73.1965 19L77.0707 13.6191L77.0581 15.4043L73.3358 10.1374H76.1591L78.5394 13.5685L77.3366 13.5811L79.6789 10.1374H82.3883L78.666 15.303V13.5305L82.5909 19H79.7042L77.286 15.3917H78.4381L76.0579 19H73.1965Z" fill="#123042"/>
</svg>
